<svg xmlns="http://www.w3.org/2000/svg" width="1920.498" height="444.546" viewBox="0 0 1920.498 444.546">
  <path id="Soustraction_2" data-name="Soustraction 2" d="M1732.43,497.546c-34.036,0-65.9-.455-97.4-1.389-28.322-.841-55.885-2.059-84.263-3.725-53.037-3.112-100.868-7.317-151.507-11.767h-.033c-31.2-2.743-63.473-5.581-98.508-8.29-39.527-3.057-77.1-5.513-114.873-7.507-45.721-2.416-92.145-4.2-141.925-5.443-27.108-.68-55.521-1.2-84.449-1.548-30.459-.366-62.5-.552-95.225-.552-46.917,0-93.759.4-139.226,1.2-42.4.74-84.645,1.838-125.557,3.264-72.719,2.533-143.2,6.163-209.493,10.787-54.419,3.794-105.889,8.242-152.981,13.22-8.647.914-17.222,1.854-25.488,2.8V64.1c2.676-.245,5.417-.49,8.149-.722C300.1,56.491,420.145,53,576.447,53c34.026,0,65.886.455,97.4,1.389,28.3.84,55.861,2.058,84.262,3.725,53.041,3.113,100.875,7.318,151.519,11.767h.006l.049,0,.109.01c31.2,2.742,63.454,5.578,98.365,8.278,39.525,3.056,77.1,5.512,114.874,7.507,45.722,2.416,92.147,4.2,141.926,5.443,27.118.68,55.531,1.2,84.449,1.548,30.429.366,62.467.552,95.225.552,153.106,0,298.639-4.206,432.555-12.5,52.544-3.254,103.03-7.132,150.054-11.522,38.06-3.553,73.31-7.389,104.76-11.4V482.727c-19.1,2.419-42,4.576-68.076,6.406-26.219,1.842-56.279,3.4-89.346,4.639-33.275,1.245-70.462,2.195-110.527,2.822C1823.68,497.225,1779.4,497.546,1732.43,497.546Z" transform="translate(-211.502 -53)" fill="#e5e6cf"/>
</svg>
